<?xml version="1.0" encoding="UTF-8" standalone="no"?><svg xmlns="http://www.w3.org/2000/svg" xmlns:xlink="http://www.w3.org/1999/xlink" contentStyleType="text/css" height="909px" preserveAspectRatio="none" style="width:1325px;height:909px;background:#FFFFFF;" version="1.1" viewBox="0 0 1325 909" width="1325.25px" zoomAndPan="magnify"><defs/><g><rect height="20.707" style="stroke:#00000000;stroke-width:0.75;fill:none;" width="302.25" x="506.4375" y="3.75"/><text fill="#000000" font-family="sans-serif" font-size="10.5" font-weight="bold" lengthAdjust="spacing" textLength="294.75" x="510.1875" y="18.3999">Диаграмма состояний сервиса "Голосовой ассистент"</text><g id="Welcome"><rect fill="#FFC0CB" height="54.6211" rx="9.375" ry="9.375" style="stroke:#181818;stroke-width:0.375;" width="106.5" x="871.125" y="118.957"/><line style="stroke:#181818;stroke-width:0.375;" x1="871.125" x2="977.625" y1="139.6641" y2="139.6641"/><text fill="#000000" font-family="sans-serif" font-size="10.5" lengthAdjust="spacing" textLength="43.5" x="902.625" y="133.6069">Welcome</text><text fill="#000000" font-family="sans-serif" font-size="10.5" font-weight="bold" lengthAdjust="spacing" textLength="91.5" x="874.875" y="154.314">Начальная сцена</text><text fill="#000000" font-family="sans-serif" font-size="10.5" font-weight="bold" lengthAdjust="spacing" textLength="58.5" x="874.875" y="167.521">ассистента</text></g><g id="TopFilms"><rect fill="#98FB98" height="67.8281" rx="9.375" ry="9.375" style="stroke:#181818;stroke-width:0.375;" width="192" x="546.375" y="244.207"/><line style="stroke:#181818;stroke-width:0.375;" x1="546.375" x2="738.375" y1="264.9141" y2="264.9141"/><text fill="#000000" font-family="sans-serif" font-size="10.5" lengthAdjust="spacing" textLength="43.5" x="620.625" y="258.8569">TopFilms</text><text fill="#000000" font-family="sans-serif" font-size="10.5" font-weight="bold" lengthAdjust="spacing" textLength="175.5" x="550.125" y="279.564">Сцена инф-ции о топе фильмов:</text><text fill="#000000" font-family="sans-serif" font-size="10.5" lengthAdjust="spacing" textLength="170.25" x="550.125" y="292.771">- общий топ-фильмов по рейтингу</text><text fill="#000000" font-family="sans-serif" font-size="10.5" lengthAdjust="spacing" textLength="177" x="550.125" y="305.978">- топ-фильмов по жанру и рейтингу</text></g><g id="FilmInfo"><rect fill="#E0FFFF" height="160.2773" rx="9.375" ry="9.375" style="stroke:#181818;stroke-width:0.375;" width="165" x="164.625" y="382.207"/><line style="stroke:#181818;stroke-width:0.375;" x1="164.625" x2="329.625" y1="402.9141" y2="402.9141"/><text fill="#000000" font-family="sans-serif" font-size="10.5" lengthAdjust="spacing" textLength="36.75" x="228.75" y="396.8569">FilmInfo</text><text fill="#000000" font-family="sans-serif" font-size="10.5" font-weight="bold" lengthAdjust="spacing" textLength="141.75" x="168.375" y="417.564">Сцена инф-ции о фильме:</text><text fill="#000000" font-family="sans-serif" font-size="10.5" lengthAdjust="spacing" textLength="42" x="168.375" y="430.771">- актеры</text><text fill="#000000" font-family="sans-serif" font-size="10.5" lengthAdjust="spacing" textLength="61.5" x="168.375" y="443.978">- режиссеры</text><text fill="#000000" font-family="sans-serif" font-size="10.5" lengthAdjust="spacing" textLength="66.75" x="168.375" y="457.1851">- сценаристы</text><text fill="#000000" font-family="sans-serif" font-size="10.5" lengthAdjust="spacing" textLength="110.25" x="168.375" y="470.3921">- дата релиза фильма</text><text fill="#000000" font-family="sans-serif" font-size="10.5" lengthAdjust="spacing" textLength="88.5" x="168.375" y="483.5991">- рейтинг фильма</text><text fill="#000000" font-family="sans-serif" font-size="10.5" lengthAdjust="spacing" textLength="150" x="168.375" y="496.8062">- продолжительность фильма</text><text fill="#000000" font-family="sans-serif" font-size="10.5" lengthAdjust="spacing" textLength="81" x="168.375" y="510.0132">- сюжет фильма</text><text fill="#000000" font-family="sans-serif" font-size="10.5" lengthAdjust="spacing" textLength="109.5" x="168.375" y="523.2202">- жанр/жанры фильма</text><text fill="#000000" font-family="sans-serif" font-size="10.5" lengthAdjust="spacing" textLength="106.5" x="168.375" y="536.4272">- подробная инф-ция</text></g><g id="PersonInfo"><rect fill="#FFC0CB" height="81.0352" rx="9.375" ry="9.375" style="stroke:#181818;stroke-width:0.375;" width="197.25" x="396.75" y="613.207"/><line style="stroke:#181818;stroke-width:0.375;" x1="396.75" x2="594" y1="633.9141" y2="633.9141"/><text fill="#000000" font-family="sans-serif" font-size="10.5" lengthAdjust="spacing" textLength="51" x="469.875" y="627.8569">PersonInfo</text><text fill="#000000" font-family="sans-serif" font-size="10.5" font-weight="bold" lengthAdjust="spacing" textLength="142.5" x="400.5" y="648.564">Сцена инф-ции о персоне:</text><text fill="#000000" font-family="sans-serif" font-size="10.5" lengthAdjust="spacing" textLength="180.75" x="400.5" y="661.771">- роли (актер, сценарист, режиссер)</text><text fill="#000000" font-family="sans-serif" font-size="10.5" lengthAdjust="spacing" textLength="182.25" x="400.5" y="674.978">- в каких фильмах принимал участие</text><text fill="#000000" font-family="sans-serif" font-size="10.5" lengthAdjust="spacing" textLength="181.5" x="400.5" y="688.1851">- подробная информация о персоне</text></g><g id="Help"><rect fill="#F0F8FF" height="54.6211" rx="9.375" ry="9.375" style="stroke:#181818;stroke-width:0.375;" width="120.75" x="5.25" y="764.707"/><line style="stroke:#181818;stroke-width:0.375;" x1="5.25" x2="126" y1="785.4141" y2="785.4141"/><text fill="#000000" font-family="sans-serif" font-size="10.5" lengthAdjust="spacing" textLength="21" x="55.125" y="779.3569">Help</text><text fill="#000000" font-family="sans-serif" font-size="10.5" font-weight="bold" lengthAdjust="spacing" textLength="90.75" x="9" y="800.064">Сцена примеров</text><text fill="#000000" font-family="sans-serif" font-size="10.5" font-weight="bold" lengthAdjust="spacing" textLength="105.75" x="9" y="813.271">запросов к сервису</text></g><ellipse cx="729.375" cy="897.457" fill="none" rx="7.5" ry="7.5" style="stroke:#222222;stroke-width:0.75;"/><ellipse cx="729.75" cy="897.832" fill="#222222" rx="4.5" ry="4.5" style="stroke:none;stroke-width:0.75;"/><ellipse cx="924.375" cy="40.957" fill="#222222" rx="7.5" ry="7.5" style="stroke:none;stroke-width:0.75;"/><!--MD5=[81173455c94a9b0df92f21a7da6e4281]
link *start to Welcome--><g id="link_*start_Welcome"><path d="M924.375,48.5245 C924.375,61.792 924.375,91.822 924.375,114.997 " fill="none" id="*start-to-Welcome" style="stroke:#181818;stroke-width:0.75;"/><polygon fill="#181818" points="924.375,118.942,927.375,112.192,924.375,115.192,921.375,112.192,924.375,118.942" style="stroke:#181818;stroke-width:0.75;"/><text fill="#000000" font-family="sans-serif" font-size="9.75" lengthAdjust="spacing" textLength="46.5" x="934.125" y="81.8284">Активация</text><text fill="#000000" font-family="sans-serif" font-size="9.75" lengthAdjust="spacing" textLength="64.5" x="925.125" y="94.092">навыка Алисы</text></g><!--MD5=[46fd3e0f09aa2a2b2698e3abf5f6f5d8]
link Welcome to Welcome--><g id="link_Welcome_Welcome"><path d="M977.6925,134.8645 C992.52,135.3895 1003.875,139.2145 1003.875,146.332 C1003.875,152.782 994.545,156.5245 981.765,157.567 " fill="none" id="Welcome-to-Welcome" style="stroke:#181818;stroke-width:0.75;"/><polygon fill="#181818" points="977.6925,157.7995,984.6027,160.4096,981.4364,157.5856,984.2604,154.4193,977.6925,157.7995" style="stroke:#181818;stroke-width:0.75;"/><text fill="#000000" font-family="sans-serif" font-size="9.75" lengthAdjust="spacing" textLength="102" x="1008.375" y="150.4534">Приветственная фраза</text></g><!--MD5=[f8d6bcc63100752d13b5d64fd978056f]
link Welcome to Help--><g id="link_Welcome_Help"><path d="M870.8025,149.002 C674.775,156.727 7.875,189.472 7.875,277.207 C7.875,277.207 7.875,277.207 7.875,654.457 C7.875,693.742 28.32,734.7295 44.88,761.4895 " fill="none" id="Welcome-to-Help" style="stroke:#0000FF;stroke-width:0.75;stroke-dasharray:1.0,3.0;"/><polygon fill="#0000FF" points="46.875,764.6845,45.8349,757.3715,44.8846,761.5063,40.7498,760.5561,46.875,764.6845" style="stroke:#0000FF;stroke-width:0.75;"/><text fill="#000000" font-family="sans-serif" font-size="9.75" lengthAdjust="spacing" textLength="52.5" x="20.25" y="460.5784">Есть интент</text><text fill="#000000" font-family="sans-serif" font-size="9.75" lengthAdjust="spacing" textLength="75.75" x="8.625" y="472.842">запроса помощи</text></g><!--MD5=[2c754a6e54dc6ccd597fd996cc7e75b1]
link Welcome to End--><g id="link_Welcome_End"><path d="M977.835,156.8395 C1038.72,171.397 1129.875,205.207 1129.875,277.207 C1129.875,277.207 1129.875,277.207 1129.875,792.832 C1129.875,875.5045 806.085,893.4895 740.775,896.272 " fill="none" id="Welcome-to-End" style="stroke:#FF0000;stroke-width:0.75;stroke-dasharray:7.0,7.0;"/><polygon fill="#FF0000" points="737.0175,896.4295,743.8898,899.1378,740.7641,896.269,743.6329,893.1433,737.0175,896.4295" style="stroke:#FF0000;stroke-width:0.75;"/><text fill="#000000" font-family="sans-serif" font-size="9.75" lengthAdjust="spacing" textLength="73.5" x="1130.625" y="576.0784">Фраза о выходе</text><text fill="#000000" font-family="sans-serif" font-size="9.75" lengthAdjust="spacing" textLength="45" x="1144.875" y="588.342">из навыка</text></g><!--MD5=[2c754a6e54dc6ccd597fd996cc7e75b1]
link Welcome to End--><g id="link_Welcome_End"><path d="M977.7525,157.9645 C1066.53,177.607 1234.875,222.1195 1234.875,277.207 C1234.875,277.207 1234.875,277.207 1234.875,792.832 C1234.875,897.2545 815.79,897.637 740.79,896.872 " fill="none" id="Welcome-to-End-1" style="stroke:#FF0000;stroke-width:0.75;stroke-dasharray:7.0,7.0;"/><polygon fill="#FF0000" points="736.9125,896.827,743.6278,899.904,740.6623,896.8699,743.6963,893.9044,736.9125,896.827" style="stroke:#FF0000;stroke-width:0.75;"/><text fill="#000000" font-family="sans-serif" font-size="9.75" lengthAdjust="spacing" textLength="81.75" x="1236.75" y="576.0784">Отсутствие ответа</text><text fill="#000000" font-family="sans-serif" font-size="9.75" lengthAdjust="spacing" textLength="84" x="1235.625" y="588.342">от backend &gt; 3 сек</text></g><!--MD5=[3511413d2f25e7c2d619a7a5a288f368]
link Help to Help--><g id="link_Help_Help"><path d="M126.1425,780.7195 C141.0975,781.537 152.25,785.3245 152.25,792.082 C152.25,798.2545 142.935,801.952 129.9075,803.167 " fill="none" id="Help-to-Help" style="stroke:#181818;stroke-width:0.75;"/><polygon fill="#181818" points="126.1425,803.4445,133.0967,805.9348,129.8821,803.1659,132.651,799.9513,126.1425,803.4445" style="stroke:#181818;stroke-width:0.75;"/><text fill="#000000" font-family="sans-serif" font-size="9.75" lengthAdjust="spacing" textLength="139.5" x="156.75" y="796.2034">Озвучивает примеры запросов</text></g><!--MD5=[d35b6016696cbceb250af3b2d08d3f25]
link Help to End--><g id="link_Help_End"><path d="M113.2425,819.517 C146.01,836.482 191.1375,857.1295 233.625,867.457 C329.9475,890.872 653.22,895.822 718.0125,896.587 " fill="none" id="Help-to-End" style="stroke:#181818;stroke-width:0.75;stroke-dasharray:7.0,7.0;"/><polygon fill="#181818" points="721.905,896.632,715.1897,893.5551,718.1552,896.5892,715.1212,899.5547,721.905,896.632" style="stroke:#181818;stroke-width:0.75;"/><text fill="#000000" font-family="sans-serif" font-size="9.75" lengthAdjust="spacing" textLength="73.5" x="234.375" y="852.8284">Фраза о выходе</text><text fill="#000000" font-family="sans-serif" font-size="9.75" lengthAdjust="spacing" textLength="45" x="248.625" y="865.092">из навыка</text></g><!--MD5=[b0a0d5e81272064e43c369b6896908df]
link Welcome to TopFilms--><g id="link_Welcome_TopFilms"><path d="M871.005,171.712 C827.5725,191.752 765.7725,220.267 717.3675,242.602 " fill="none" id="Welcome-to-TopFilms" style="stroke:#FF0000;stroke-width:0.75;"/><polygon fill="#FF0000" points="713.91,244.1995,721.2961,244.1095,717.318,242.6349,718.7926,238.6567,713.91,244.1995" style="stroke:#FF0000;stroke-width:0.75;"/><text fill="#000000" font-family="sans-serif" font-size="9.75" lengthAdjust="spacing" textLength="91.5" x="817.125" y="207.0784">Есть интент запроса</text><text fill="#000000" font-family="sans-serif" font-size="9.75" lengthAdjust="spacing" textLength="75.75" x="825" y="219.342">по топу фильмов</text></g><!--MD5=[03ea5884cf13ed4de6ad4c938b1664f8]
link TopFilms to TopFilms--><g id="link_TopFilms_TopFilms"><path d="M738.4725,271.987 C753.9825,272.8495 764.625,274.837 764.625,277.957 C764.625,280.807 755.7375,282.712 742.3575,283.6795 " fill="none" id="TopFilms-to-TopFilms" style="stroke:#008000;stroke-width:0.75;"/><polygon fill="#008000" points="738.4725,283.927,745.3979,286.4964,742.2151,283.6911,745.0204,280.5083,738.4725,283.927" style="stroke:#008000;stroke-width:0.75;"/><text fill="#000000" font-family="sans-serif" font-size="9.75" lengthAdjust="spacing" textLength="52.5" x="771.375" y="276.0784">Озвучивает</text><text fill="#000000" font-family="sans-serif" font-size="9.75" lengthAdjust="spacing" textLength="57" x="769.125" y="288.342">топ-фильмов</text></g><!--MD5=[03ea5884cf13ed4de6ad4c938b1664f8]
link TopFilms to TopFilms--><g id="link_TopFilms_TopFilms"><path d="M738.5175,265.2445 C786.1125,263.947 830.625,268.1845 830.625,277.957 C830.625,287.4595 788.5125,291.727 742.41,290.7595 " fill="none" id="TopFilms-to-TopFilms-1" style="stroke:#008000;stroke-width:0.75;"/><polygon fill="#008000" points="738.5175,290.6695,745.1882,293.8421,742.2663,290.7659,745.3424,287.844,738.5175,290.6695" style="stroke:#008000;stroke-width:0.75;"/><text fill="#000000" font-family="sans-serif" font-size="9.75" lengthAdjust="spacing" textLength="97.5" x="835.125" y="276.0784">Опять интент запроса</text><text fill="#000000" font-family="sans-serif" font-size="9.75" lengthAdjust="spacing" textLength="75.75" x="846" y="288.342">по топу-фильмов</text></g><!--MD5=[9767a4de34923a97bcf458a0a8668956]
link TopFilms to FilmInfo--><g id="link_TopFilms_FilmInfo"><path d="M546.2475,309.7195 C525.525,317.152 503.9025,325.4845 484.125,334.207 C432.7725,356.857 377.4375,386.3245 333.1575,411.2245 " fill="none" id="TopFilms-to-FilmInfo" style="stroke:#008000;stroke-width:0.75;"/><polygon fill="#008000" points="329.715,413.1595,337.0682,412.457,332.9814,411.3175,334.1209,407.2307,329.715,413.1595" style="stroke:#008000;stroke-width:0.75;"/><text fill="#000000" font-family="sans-serif" font-size="9.75" lengthAdjust="spacing" textLength="91.5" x="492.75" y="345.0784">Есть интент запроса</text><text fill="#000000" font-family="sans-serif" font-size="9.75" lengthAdjust="spacing" textLength="107.25" x="484.875" y="357.342">по конкретному фильму</text></g><!--MD5=[283f18dff9c940b558fbe0db8cff0778]
reverse link TopFilms to FilmInfo--><g id="link_TopFilms_FilmInfo"><path d="M542.46,288.007 C465.225,296.752 365.925,311.872 331.875,334.207 C313.5375,346.237 298.2225,363.7495 285.8775,381.967 " fill="none" id="TopFilms-backto-FilmInfo" style="stroke:#0000FF;stroke-width:0.75;"/><polygon fill="#0000FF" points="546.3525,287.572,539.3104,285.3425,542.6258,287.9897,539.9786,291.3051,546.3525,287.572" style="stroke:#0000FF;stroke-width:0.75;"/><text fill="#000000" font-family="sans-serif" font-size="9.75" lengthAdjust="spacing" textLength="91.5" x="332.625" y="345.0784">Есть интент запроса</text><text fill="#000000" font-family="sans-serif" font-size="9.75" lengthAdjust="spacing" textLength="75.75" x="340.5" y="357.342">по топу-фильмов</text></g><!--MD5=[344994cb58f5cb4c8f81cfe56eebb20d]
link TopFilms to PersonInfo--><g id="link_TopFilms_PersonInfo"><path d="M671.76,311.752 C686.7825,330.8845 703.5225,356.2645 711.375,382.207 C732.045,450.4795 746.4375,480.5845 711.375,542.707 C687.525,584.9695 641.3625,611.527 597.8175,627.952 " fill="none" id="TopFilms-to-PersonInfo" style="stroke:#008000;stroke-width:0.75;"/><polygon fill="#008000" points="594.1575,629.3095,601.5299,629.7682,597.6722,628.0022,599.4382,624.1446,594.1575,629.3095" style="stroke:#008000;stroke-width:0.75;"/><text fill="#000000" font-family="sans-serif" font-size="9.75" lengthAdjust="spacing" textLength="91.5" x="738.75" y="460.5784">Есть интент запроса</text><text fill="#000000" font-family="sans-serif" font-size="9.75" lengthAdjust="spacing" textLength="102.75" x="733.125" y="472.842">по конкретной персоне</text></g><!--MD5=[c2317c198e2e5527200dce922b31b6b5]
link PersonInfo to TopFilms--><g id="link_PersonInfo_TopFilms"><path d="M569.2875,613.012 C576.6825,606.427 583.3125,599.002 588.375,590.707 C612.6675,550.8895 603.1875,427.9345 612.375,382.207 C616.89,359.7595 623.94,335.122 630.075,315.517 " fill="none" id="PersonInfo-to-TopFilms" style="stroke:#9400D3;stroke-width:0.75;"/><polygon fill="#9400D3" points="631.2075,311.917,626.3213,317.4566,630.0829,315.4944,632.0451,319.256,631.2075,311.917" style="stroke:#9400D3;stroke-width:0.75;"/><text fill="#000000" font-family="sans-serif" font-size="9.75" lengthAdjust="spacing" textLength="91.5" x="613.125" y="460.5784">Есть интент запроса</text><text fill="#000000" font-family="sans-serif" font-size="9.75" lengthAdjust="spacing" textLength="75.75" x="621" y="472.842">по топу-фильмов</text></g><!--MD5=[953d6eb88ff1f92969d4c57461809974]
link TopFilms to Help--><g id="link_TopFilms_Help"><path d="M546.285,310.267 C544.05,310.777 541.83,311.257 539.625,311.707 C367.695,346.8595 271.8825,254.8795 151.125,382.207 C98.9625,437.212 74.9925,674.947 67.9425,760.507 " fill="none" id="TopFilms-to-Help" style="stroke:#0000FF;stroke-width:0.75;stroke-dasharray:1.0,3.0;"/><polygon fill="#0000FF" points="67.62,764.467,71.1687,757.9886,67.9305,760.7299,65.1893,757.4918,67.62,764.467" style="stroke:#0000FF;stroke-width:0.75;"/><text fill="#000000" font-family="sans-serif" font-size="9.75" lengthAdjust="spacing" textLength="52.5" x="104.25" y="576.0784">Есть интент</text><text fill="#000000" font-family="sans-serif" font-size="9.75" lengthAdjust="spacing" textLength="75.75" x="92.625" y="588.342">запроса помощи</text></g><!--MD5=[97e83e88ccda13a66cb378b534615759]
link TopFilms to End--><g id="link_TopFilms_End"><path d="M738.7275,286.3195 C809.0325,293.9395 896.25,308.3545 921.375,334.207 C1009.0275,424.402 958.0875,487.882 968.625,613.207 C978.465,730.237 988.3125,794.062 896.625,867.457 C872.3025,886.927 774.09,894.187 740.6175,896.1295 " fill="none" id="TopFilms-to-End" style="stroke:#008000;stroke-width:0.75;stroke-dasharray:7.0,7.0;"/><polygon fill="#008000" points="736.8675,896.3395,743.7781,898.9484,740.6114,896.125,743.4348,892.9583,736.8675,896.3395" style="stroke:#008000;stroke-width:0.75;"/><text fill="#000000" font-family="sans-serif" font-size="9.75" lengthAdjust="spacing" textLength="73.5" x="974.625" y="651.8284">Фраза о выходе</text><text fill="#000000" font-family="sans-serif" font-size="9.75" lengthAdjust="spacing" textLength="45" x="988.875" y="664.092">из навыка</text></g><!--MD5=[97e83e88ccda13a66cb378b534615759]
link TopFilms to End--><g id="link_TopFilms_End"><path d="M738.495,304.1545 C777.915,319.8445 819.63,344.437 842.625,382.207 C914.745,500.6695 863.895,558.082 837.375,694.207 C826.0425,752.377 820.7775,767.857 791.625,819.457 C775.875,847.342 750.165,875.4745 737.2725,888.7795 " fill="none" id="TopFilms-to-End-1" style="stroke:#008000;stroke-width:0.75;stroke-dasharray:7.0,7.0;"/><polygon fill="#008000" points="734.5725,891.5395,741.4397,888.8184,737.1972,888.8612,737.1544,884.6188,734.5725,891.5395" style="stroke:#008000;stroke-width:0.75;"/><text fill="#000000" font-family="sans-serif" font-size="9.75" lengthAdjust="spacing" textLength="81.75" x="858" y="651.8284">Отсутствие ответа</text><text fill="#000000" font-family="sans-serif" font-size="9.75" lengthAdjust="spacing" textLength="84" x="856.875" y="664.092">от backend &gt; 3 сек</text></g><!--MD5=[7f27609a3eb4a178087a1362022509e5]
link Welcome to FilmInfo--><g id="link_Welcome_FilmInfo"><path d="M870.825,150.1195 C776.9925,157.0195 578.2425,178.7545 424.875,244.207 C361.08,271.432 340.215,279.6595 297.375,334.207 C287.0625,347.3395 278.625,362.857 271.8075,378.4645 " fill="none" id="Welcome-to-FilmInfo" style="stroke:#FF0000;stroke-width:0.75;"/><polygon fill="#FF0000" points="270.2925,382.0045,275.7089,376.9821,271.7697,378.5577,270.194,374.6185,270.2925,382.0045" style="stroke:#FF0000;stroke-width:0.75;"/><text fill="#000000" font-family="sans-serif" font-size="9.75" lengthAdjust="spacing" textLength="91.5" x="433.5" y="276.0784">Есть интент запроса</text><text fill="#000000" font-family="sans-serif" font-size="9.75" lengthAdjust="spacing" textLength="107.25" x="425.625" y="288.342">по конкретному фильму</text></g><!--MD5=[986071a90f847f4cabbac0141b64eebc]
link FilmInfo to FilmInfo--><g id="link_FilmInfo_FilmInfo"><path d="M329.64,452.182 C345.03,453.4495 355.875,456.877 355.875,462.457 C355.875,467.557 346.815,470.857 333.5025,472.357 " fill="none" id="FilmInfo-to-FilmInfo" style="stroke:#0000FF;stroke-width:0.75;"/><polygon fill="#0000FF" points="329.64,472.732,336.6491,475.0634,333.3723,472.3684,336.0673,469.0917,329.64,472.732" style="stroke:#0000FF;stroke-width:0.75;"/><text fill="#000000" font-family="sans-serif" font-size="9.75" lengthAdjust="spacing" textLength="52.5" x="378" y="460.5784">Озвучивает</text><text fill="#000000" font-family="sans-serif" font-size="9.75" lengthAdjust="spacing" textLength="87.75" x="360.375" y="472.842">запрошенную инфу</text></g><!--MD5=[986071a90f847f4cabbac0141b64eebc]
link FilmInfo to FilmInfo--><g id="link_FilmInfo_FilmInfo"><path d="M329.7525,442.327 C388.35,437.4745 452.625,444.187 452.625,462.457 C452.625,480.337 391.0875,487.147 333.5325,482.8795 " fill="none" id="FilmInfo-to-FilmInfo-1" style="stroke:#0000FF;stroke-width:0.75;"/><polygon fill="#0000FF" points="329.7525,482.587,336.241,486.1172,333.4905,482.8869,336.7208,480.1365,329.7525,482.587" style="stroke:#0000FF;stroke-width:0.75;"/><text fill="#000000" font-family="sans-serif" font-size="9.75" lengthAdjust="spacing" textLength="97.5" x="457.125" y="460.5784">Опять интент запроса</text><text fill="#000000" font-family="sans-serif" font-size="9.75" lengthAdjust="spacing" textLength="93.75" x="459" y="472.842">с инфой по фильмам</text></g><!--MD5=[709c2c80720f8b3aa18a16569ac2fcf4]
link FilmInfo to PersonInfo--><g id="link_FilmInfo_PersonInfo"><path d="M329.8425,486.007 C374.0175,501.8845 426.39,527.1595 461.625,565.207 C473.025,577.5145 480.705,594.082 485.8275,609.502 " fill="none" id="FilmInfo-to-PersonInfo" style="stroke:#0000FF;stroke-width:0.75;"/><polygon fill="#0000FF" points="487.005,613.1845,487.7962,605.8404,485.8578,609.6143,482.0839,607.6759,487.005,613.1845" style="stroke:#0000FF;stroke-width:0.75;"/><text fill="#000000" font-family="sans-serif" font-size="9.75" lengthAdjust="spacing" textLength="91.5" x="484.5" y="576.0784">Есть интент запроса</text><text fill="#000000" font-family="sans-serif" font-size="9.75" lengthAdjust="spacing" textLength="102.75" x="478.875" y="588.342">по конкретной персоне</text></g><!--MD5=[fb8740b929e8fa82691010febda1a246]
link PersonInfo to FilmInfo--><g id="link_PersonInfo_FilmInfo"><path d="M396.6075,619.942 C379.1625,611.8195 361.8225,602.1145 346.875,590.707 C341.5275,586.627 326.2425,567.7795 309.1875,545.7745 " fill="none" id="PersonInfo-to-FilmInfo" style="stroke:#9400D3;stroke-width:0.75;"/><polygon fill="#9400D3" points="306.885,542.7895,308.6377,549.9652,309.1776,545.7571,313.3858,546.297,306.885,542.7895" style="stroke:#9400D3;stroke-width:0.75;"/><text fill="#000000" font-family="sans-serif" font-size="9.75" lengthAdjust="spacing" textLength="91.5" x="355.5" y="576.0784">Есть интент запроса</text><text fill="#000000" font-family="sans-serif" font-size="9.75" lengthAdjust="spacing" textLength="107.25" x="347.625" y="588.342">по конкретному фильму</text></g><!--MD5=[663b5dfb7157c70e75db320d694b39cd]
link FilmInfo to Help--><g id="link_FilmInfo_Help"><path d="M207.4725,542.872 C178.7025,599.3395 138.075,676.447 98.625,742.207 C94.8825,748.4545 90.675,755.002 86.5575,761.212 " fill="none" id="FilmInfo-to-Help" style="stroke:#0000FF;stroke-width:0.75;stroke-dasharray:1.0,3.0;"/><polygon fill="#0000FF" points="84.285,764.6245,90.5254,760.6723,86.3651,761.5043,85.5331,757.3441,84.285,764.6245" style="stroke:#0000FF;stroke-width:0.75;"/><text fill="#000000" font-family="sans-serif" font-size="9.75" lengthAdjust="spacing" textLength="52.5" x="182.25" y="651.8284">Есть интент</text><text fill="#000000" font-family="sans-serif" font-size="9.75" lengthAdjust="spacing" textLength="75.75" x="170.625" y="664.092">запроса помощи</text></g><!--MD5=[fba46d42258d4caca8550cca1baf7cad]
link FilmInfo to End--><g id="link_FilmInfo_End"><path d="M251.7375,542.8045 C256.65,619.0045 264.975,724.8895 274.125,742.207 C281.4225,756.0145 291,752.812 301.125,764.707 C335.505,805.1095 316.875,839.362 361.875,867.457 C392.76,886.7395 659.07,894.8545 717.9,896.4145 " fill="none" id="FilmInfo-to-End" style="stroke:#0000FF;stroke-width:0.75;stroke-dasharray:7.0,7.0;"/><polygon fill="#0000FF" points="721.7775,896.5195,715.1068,893.347,718.0287,896.4231,714.9526,899.345,721.7775,896.5195" style="stroke:#0000FF;stroke-width:0.75;"/><text fill="#000000" font-family="sans-serif" font-size="9.75" lengthAdjust="spacing" textLength="73.5" x="274.875" y="727.5784">Фраза о выходе</text><text fill="#000000" font-family="sans-serif" font-size="9.75" lengthAdjust="spacing" textLength="45" x="289.125" y="739.842">из навыка</text></g><!--MD5=[fba46d42258d4caca8550cca1baf7cad]
link FilmInfo to End--><g id="link_FilmInfo_End"><path d="M268.8675,542.962 C288.675,603.5095 323.055,685.717 376.125,742.207 C478.215,850.867 670.0725,887.407 718.2075,895.0645 " fill="none" id="FilmInfo-to-End-1" style="stroke:#0000FF;stroke-width:0.75;stroke-dasharray:7.0,7.0;"/><polygon fill="#0000FF" points="721.92,895.642,715.7133,891.637,718.2149,895.0638,714.7881,897.5653,721.92,895.642" style="stroke:#0000FF;stroke-width:0.75;"/><text fill="#000000" font-family="sans-serif" font-size="9.75" lengthAdjust="spacing" textLength="81.75" x="378" y="727.5784">Отсутствие ответа</text><text fill="#000000" font-family="sans-serif" font-size="9.75" lengthAdjust="spacing" textLength="84" x="376.875" y="739.842">от backend &gt; 3 сек</text></g><!--MD5=[e0af72f5a1a39513d2a0883a2eb9816d]
link Welcome to PersonInfo--><g id="link_Welcome_PersonInfo"><path d="M940.0425,173.977 C961.68,214.702 995.79,294.1945 974.625,359.707 C943.8,455.137 923.2875,483.127 842.625,542.707 C770.4525,596.017 671.64,624.097 597.8775,638.542 " fill="none" id="Welcome-to-PersonInfo" style="stroke:#FF0000;stroke-width:0.75;"/><polygon fill="#FF0000" points="594.1575,639.262,601.3565,640.9163,597.8383,638.5451,600.2095,635.0269,594.1575,639.262" style="stroke:#FF0000;stroke-width:0.75;"/><text fill="#000000" font-family="sans-serif" font-size="9.75" lengthAdjust="spacing" textLength="91.5" x="986.25" y="345.0784">Есть интент запроса</text><text fill="#000000" font-family="sans-serif" font-size="9.75" lengthAdjust="spacing" textLength="102.75" x="980.625" y="357.342">по конкретной персоне</text></g><!--MD5=[7b806f78ff7b7ff1f7eff6b816d088ff]
link PersonInfo to PersonInfo--><g id="link_PersonInfo_PersonInfo"><path d="M594.045,647.2495 C609.615,648.202 620.25,650.3545 620.25,653.707 C620.25,656.767 611.3625,658.8295 597.945,659.8945 " fill="none" id="PersonInfo-to-PersonInfo" style="stroke:#9400D3;stroke-width:0.75;"/><polygon fill="#9400D3" points="594.045,660.1645,600.9849,662.6944,597.7862,659.9073,600.5733,656.7085,594.045,660.1645" style="stroke:#9400D3;stroke-width:0.75;"/><text fill="#000000" font-family="sans-serif" font-size="9.75" lengthAdjust="spacing" textLength="52.5" x="642.375" y="651.8284">Озвучивает</text><text fill="#000000" font-family="sans-serif" font-size="9.75" lengthAdjust="spacing" textLength="87.75" x="624.75" y="664.092">запрошенную инфу</text></g><!--MD5=[7b806f78ff7b7ff1f7eff6b816d088ff]
link PersonInfo to PersonInfo--><g id="link_PersonInfo_PersonInfo"><path d="M594.09,640.2445 C654.6225,637.9045 717,642.3895 717,653.707 C717,664.777 657.2775,669.3145 597.9975,667.312 " fill="none" id="PersonInfo-to-PersonInfo-1" style="stroke:#9400D3;stroke-width:0.75;"/><polygon fill="#9400D3" points="594.09,667.1695,600.724,670.418,597.8374,667.3087,600.9467,664.4221,594.09,667.1695" style="stroke:#9400D3;stroke-width:0.75;"/><text fill="#000000" font-family="sans-serif" font-size="9.75" lengthAdjust="spacing" textLength="97.5" x="721.5" y="651.8284">Опять интент запроса</text><text fill="#000000" font-family="sans-serif" font-size="9.75" lengthAdjust="spacing" textLength="93.75" x="723.375" y="664.092">с инфой по фильмам</text></g><!--MD5=[1ad338dc384effc10c826be924472615]
link PersonInfo to End--><g id="link_PersonInfo_End"><path d="M593.82,694.297 C626.19,711.667 659.76,734.9695 682.875,764.707 C712.755,803.152 724.35,862.297 727.98,886.177 " fill="none" id="PersonInfo-to-End" style="stroke:#9400D3;stroke-width:0.75;stroke-dasharray:7.0,7.0;"/><polygon fill="#9400D3" points="728.5275,889.957,730.5111,882.8417,727.9807,886.2471,724.5753,883.7167,728.5275,889.957" style="stroke:#9400D3;stroke-width:0.75;"/><text fill="#000000" font-family="sans-serif" font-size="9.75" lengthAdjust="spacing" textLength="73.5" x="711.375" y="790.2034">Фраза о выходе</text><text fill="#000000" font-family="sans-serif" font-size="9.75" lengthAdjust="spacing" textLength="45" x="725.625" y="802.467">из навыка</text></g><!--MD5=[1ad338dc384effc10c826be924472615]
link PersonInfo to End--><g id="link_PersonInfo_End"><path d="M549.4275,694.207 C556.23,701.092 562.5,708.6445 567.375,716.707 C591.63,756.8395 563.1825,781.9795 591.375,819.457 C624.9075,864.0295 692.115,886.507 718.44,893.887 " fill="none" id="PersonInfo-to-End-1" style="stroke:#9400D3;stroke-width:0.75;stroke-dasharray:7.0,7.0;"/><polygon fill="#9400D3" points="722.3025,894.9445,716.5774,890.2771,718.6841,893.9597,715.0016,896.0664,722.3025,894.9445" style="stroke:#9400D3;stroke-width:0.75;"/><text fill="#000000" font-family="sans-serif" font-size="9.75" lengthAdjust="spacing" textLength="81.75" x="593.25" y="790.2034">Отсутствие ответа</text><text fill="#000000" font-family="sans-serif" font-size="9.75" lengthAdjust="spacing" textLength="84" x="592.125" y="802.467">от backend &gt; 3 сек</text></g><!--MD5=[de7fb8bdd6ea6f5ba34b9445b4848944]
link PersonInfo to Help--><g id="link_PersonInfo_Help"><path d="M492.255,694.312 C488.7975,711.5695 481.7625,730.4695 467.625,742.207 C417.6225,783.727 230.19,790.897 129.9,791.677 " fill="none" id="PersonInfo-to-Help" style="stroke:#0000FF;stroke-width:0.75;stroke-dasharray:1.0,3.0;"/><polygon fill="#0000FF" points="126.075,791.707,132.842,794.6684,129.8249,791.6856,132.8077,788.6685,126.075,791.707" style="stroke:#0000FF;stroke-width:0.75;"/><text fill="#000000" font-family="sans-serif" font-size="9.75" lengthAdjust="spacing" textLength="52.5" x="496.5" y="727.5784">Есть интент</text><text fill="#000000" font-family="sans-serif" font-size="9.75" lengthAdjust="spacing" textLength="75.75" x="484.875" y="739.842">запроса помощи</text></g><!--MD5=[58469b2139b607827c7377fd02673a9d]
@startuml
'https://plantuml.com/state-diagram
title <b>Диаграмма состояний сервиса "Голосовой ассистент"
state Welcome #pink : <b>Начальная сцена\n<b>ассистента
state TopFilms #palegreen
state FilmInfo #lightcyan
state PersonInfo #pink
state Help #aliceblue : <b>Сцена примеров\n<b>запросов к сервису
state End <<end>>

[*] - -> Welcome : Активация\nнавыка Алисы

Welcome - -> Welcome : Приветственная фраза
Welcome -[#blue,dotted]-> Help : Есть интент\nзапроса помощи

Welcome -[#red,dashed]-> End : Фраза о выходе\nиз навыка
Welcome -[#red,dashed]-> End : Отсутствие ответа\nот backend > 3 сек

Help - -> Help : Озвучивает примеры запросов
Help -[dashed]-> End : Фраза о выходе\nиз навыка

Welcome -[#red]-> TopFilms : Есть интент запроса\nпо топу фильмов
TopFilms : <b>Сцена инф-ции о топе фильмов:
TopFilms : - общий топ-фильмов по рейтингу
TopFilms : - топ-фильмов по жанру и рейтингу

TopFilms -[#green]-> TopFilms : Озвучивает\nтоп-фильмов
TopFilms -[#green]-> TopFilms : Опять интент запроса\nпо топу-фильмов
TopFilms -[#green]-> FilmInfo : Есть интент запроса\nпо конкретному фильму
TopFilms -[#green]-> PersonInfo : Есть интент запроса\nпо конкретной персоне
TopFilms -[#blue,dotted]-> Help : Есть интент\nзапроса помощи
TopFilms -[#green,dashed]-> End : Фраза о выходе\nиз навыка
TopFilms -[#green,dashed]-> End : Отсутствие ответа\nот backend > 3 сек

Welcome -[#red]-> FilmInfo : Есть интент запроса\nпо конкретному фильму
FilmInfo : <b>Сцена инф-ции о фильме:
FilmInfo : - актеры
FilmInfo : - режиссеры
FilmInfo : - сценаристы
FilmInfo : - дата релиза фильма
FilmInfo : - рейтинг фильма
FilmInfo : - продолжительность фильма
FilmInfo : - сюжет фильма
FilmInfo : - жанр/жанры фильма
FilmInfo : - подробная инф-ция

FilmInfo -[#blue]-> FilmInfo : Озвучивает\nзапрошенную инфу
FilmInfo -[#blue]-> FilmInfo : Опять интент запроса\nс инфой по фильмам
TopFilms <-[#blue]- FilmInfo : Есть интент запроса\nпо топу-фильмов
FilmInfo -[#blue]-> PersonInfo : Есть интент запроса\nпо конкретной персоне
FilmInfo -[#blue,dotted]-> Help : Есть интент\nзапроса помощи
FilmInfo -[#blue,dashed]-> End : Фраза о выходе\nиз навыка
FilmInfo -[#blue,dashed]-> End : Отсутствие ответа\nот backend > 3 сек

Welcome -[#red]-> PersonInfo : Есть интент запроса\nпо конкретной персоне
PersonInfo : <b>Сцена инф-ции о персоне:
PersonInfo : - роли (актер, сценарист, режиссер)
PersonInfo : - в каких фильмах принимал участие
PersonInfo : - подробная информация о персоне

PersonInfo -[#darkviolet]-> PersonInfo : Озвучивает\nзапрошенную инфу
PersonInfo -[#darkviolet]-> PersonInfo : Опять интент запроса\nс инфой по фильмам
PersonInfo -[#darkviolet,dashed]-> End : Фраза о выходе\nиз навыка
PersonInfo -[#darkviolet,dashed]-> End : Отсутствие ответа\nот backend > 3 сек
PersonInfo -[#blue,dotted]-> Help : Есть интент\nзапроса помощи
PersonInfo -[#darkviolet]-> TopFilms : Есть интент запроса\nпо топу-фильмов
PersonInfo -[#darkviolet]-> FilmInfo : Есть интент запроса\nпо конкретному фильму
@enduml

@startuml
title <b>Диаграмма состояний сервиса "Голосовой ассистент"
state Welcome #pink : <b>Начальная сцена\n<b>ассистента
state TopFilms #palegreen
state FilmInfo #lightcyan
state PersonInfo #pink
state Help #aliceblue : <b>Сцена примеров\n<b>запросов к сервису
state End <<end>>

[*] - -> Welcome : Активация\nнавыка Алисы

Welcome - -> Welcome : Приветственная фраза
Welcome -[#blue,dotted]-> Help : Есть интент\nзапроса помощи

Welcome -[#red,dashed]-> End : Фраза о выходе\nиз навыка
Welcome -[#red,dashed]-> End : Отсутствие ответа\nот backend > 3 сек

Help - -> Help : Озвучивает примеры запросов
Help -[dashed]-> End : Фраза о выходе\nиз навыка

Welcome -[#red]-> TopFilms : Есть интент запроса\nпо топу фильмов
TopFilms : <b>Сцена инф-ции о топе фильмов:
TopFilms : - общий топ-фильмов по рейтингу
TopFilms : - топ-фильмов по жанру и рейтингу

TopFilms -[#green]-> TopFilms : Озвучивает\nтоп-фильмов
TopFilms -[#green]-> TopFilms : Опять интент запроса\nпо топу-фильмов
TopFilms -[#green]-> FilmInfo : Есть интент запроса\nпо конкретному фильму
TopFilms -[#green]-> PersonInfo : Есть интент запроса\nпо конкретной персоне
TopFilms -[#blue,dotted]-> Help : Есть интент\nзапроса помощи
TopFilms -[#green,dashed]-> End : Фраза о выходе\nиз навыка
TopFilms -[#green,dashed]-> End : Отсутствие ответа\nот backend > 3 сек

Welcome -[#red]-> FilmInfo : Есть интент запроса\nпо конкретному фильму
FilmInfo : <b>Сцена инф-ции о фильме:
FilmInfo : - актеры
FilmInfo : - режиссеры
FilmInfo : - сценаристы
FilmInfo : - дата релиза фильма
FilmInfo : - рейтинг фильма
FilmInfo : - продолжительность фильма
FilmInfo : - сюжет фильма
FilmInfo : - жанр/жанры фильма
FilmInfo : - подробная инф-ция

FilmInfo -[#blue]-> FilmInfo : Озвучивает\nзапрошенную инфу
FilmInfo -[#blue]-> FilmInfo : Опять интент запроса\nс инфой по фильмам
TopFilms <-[#blue]- FilmInfo : Есть интент запроса\nпо топу-фильмов
FilmInfo -[#blue]-> PersonInfo : Есть интент запроса\nпо конкретной персоне
FilmInfo -[#blue,dotted]-> Help : Есть интент\nзапроса помощи
FilmInfo -[#blue,dashed]-> End : Фраза о выходе\nиз навыка
FilmInfo -[#blue,dashed]-> End : Отсутствие ответа\nот backend > 3 сек

Welcome -[#red]-> PersonInfo : Есть интент запроса\nпо конкретной персоне
PersonInfo : <b>Сцена инф-ции о персоне:
PersonInfo : - роли (актер, сценарист, режиссер)
PersonInfo : - в каких фильмах принимал участие
PersonInfo : - подробная информация о персоне

PersonInfo -[#darkviolet]-> PersonInfo : Озвучивает\nзапрошенную инфу
PersonInfo -[#darkviolet]-> PersonInfo : Опять интент запроса\nс инфой по фильмам
PersonInfo -[#darkviolet,dashed]-> End : Фраза о выходе\nиз навыка
PersonInfo -[#darkviolet,dashed]-> End : Отсутствие ответа\nот backend > 3 сек
PersonInfo -[#blue,dotted]-> Help : Есть интент\nзапроса помощи
PersonInfo -[#darkviolet]-> TopFilms : Есть интент запроса\nпо топу-фильмов
PersonInfo -[#darkviolet]-> FilmInfo : Есть интент запроса\nпо конкретному фильму
@enduml

PlantUML version 1.2022.4(Sat Apr 09 16:29:17 MSK 2022)
(GPL source distribution)
Java Runtime: OpenJDK Runtime Environment
JVM: OpenJDK 64-Bit Server VM
Default Encoding: Cp1251
Language: ru
Country: RU
--></g></svg>